# xmcd
# 
# Track frame offsets:
#     150
#     22275
#     39532
#     67900
#     96556
#     119973
#     135965
#     153474
#     170769
#     187039
#     206430
#     224316
#     239598
#     258152
#     275760
#     289785
#     309056
#     327110
# 
# Disc length: 4571
# 
# Revision: 3
# Processed by: cddbd v1.5.2PL0 Copyright (c) Steve Scherf et al.
# Submitted via: fre:ac v1.0.31
# 
DISCID=1711d912
DTITLE=Various Artist - Die Ultimative Chart Show - Die erfolgreichsten Bands  - CD2
DYEAR=2014
DGENRE=Pop
TTITLE0=Abba - The winner takes it all
TTITLE1=Unheilig - Geboren um zu leben
TTITLE2=BAP - Verdamp lang her (Vollkölsche Version)
TTITLE3=Pur - Abenteuerland
TTITLE4=Scorpions - Wind of change
TTITLE5=Backstreet Boys - I want it that way
TTITLE6=Die Fantastischen Vier - Sie ist weg
TTITLE7=Fettes Brot - Jein
TTITLE8=Seeed - Augenbling
TTITLE9=Santana feat. The Product G&B - Maria Maria
TTITLE10=Boney M. - Sunny
TTITLE11=Maroon 5 - This love
TTITLE12=Simply Red - Stars
TTITLE13=Keane - Somewhere only we know
TTITLE14=Imagine Dragons - Radioactive
TTITLE15=OneRepublic - Counting stars
TTITLE16=Mando Diao - Dance with somebody
TTITLE17=BossHoss - Don't gimme that
EXTD=
EXTT0=
EXTT1=
EXTT2=
EXTT3=
EXTT4=
EXTT5=
EXTT6=
EXTT7=
EXTT8=
EXTT9=
EXTT10=
EXTT11=
EXTT12=
EXTT13=
EXTT14=
EXTT15=
EXTT16=
EXTT17=
PLAYORDER=
